<?xml version="1.0" standalone="no"?>
<!DOCTYPE svg PUBLIC "-//W3C//DTD SVG 20010904//EN"
 "http://www.w3.org/TR/2001/REC-SVG-20010904/DTD/svg10.dtd">
<svg version="1.0" xmlns="http://www.w3.org/2000/svg"
 width="594.000000pt" height="320.000000pt" viewBox="0 0 594.000000 320.000000"
 preserveAspectRatio="xMidYMid meet">

<g transform="translate(0.000000,320.000000) scale(0.100000,-0.100000)"
fill="currentColor" stroke="none">
<path d="M1555 3043 c-172 -14 -344 -55 -476 -114 -394 -172 -699 -511 -823
-914 -55 -181 -60 -218 -61 -435 0 -217 9 -282 67 -460 25 -77 106 -255 113
-248 3 2 0 54 -6 114 -39 403 92 768 380 1055 184 183 307 253 616 349 146 45
420 50 594 11 103 -24 212 -75 298 -141 87 -65 124 -80 203 -80 58 0 81 5 129
30 63 32 116 88 137 148 20 55 17 159 -5 208 -57 125 -310 303 -557 392 -189
69 -422 101 -609 85z"/>
<path d="M4895 2355 c-188 -52 -350 -204 -408 -385 -40 -122 -42 -148 -42
-525 0 -422 5 -463 77 -608 54 -107 141 -193 269 -265 l94 -52 136 0 c217 0
348 44 472 159 83 78 164 208 190 306 3 11 8 30 12 41 8 30 -25 37 -150 28
l-102 -7 -24 -56 c-15 -37 -43 -76 -83 -117 -81 -81 -147 -107 -268 -107 -78
0 -94 3 -151 31 -111 55 -186 160 -207 289 -14 81 -13 655 1 729 23 126 102
233 209 283 47 22 69 26 150 26 88 0 101 -3 162 -33 80 -39 157 -120 190 -199
l22 -54 125 3 126 3 -3 25 c-8 52 -64 178 -110 245 -77 112 -191 192 -337 237
-73 22 -273 24 -350 3z"/>
<path d="M2862 2350 l-22 -9 2 -898 3 -898 365 0 c351 0 368 1 450 23 162 45
279 127 354 250 83 138 100 265 93 707 -5 340 -11 385 -68 496 -84 167 -200
258 -396 310 -70 19 -112 22 -418 25 -206 2 -349 0 -363 -6z m735 -257 c124
-41 207 -128 238 -251 14 -53 16 -117 13 -420 -3 -349 -4 -358 -27 -417 -32
-81 -115 -164 -192 -193 -81 -30 -188 -42 -375 -42 l-164 0 0 676 0 676 223
-4 c190 -4 231 -8 284 -25z"/>
<path d="M1284 2204 c-310 -163 -563 -452 -663 -756 -52 -156 -62 -218 -68
-398 -4 -153 -2 -188 16 -278 44 -210 137 -339 345 -476 215 -142 430 -216
694 -237 305 -26 584 37 859 192 109 62 167 122 189 194 31 110 -9 228 -100
289 -101 68 -178 66 -331 -11 -110 -56 -198 -81 -320 -93 -168 -15 -307 6
-443 70 -224 105 -396 294 -471 517 -49 144 -47 399 3 541 63 181 191 350 328
437 44 28 59 45 40 45 -5 0 -40 -16 -78 -36z"/>
<path d="M1670 2159 c-74 -27 -162 -59 -195 -71 -109 -39 -109 -50 -5 -88 l75
-28 -4 -79 c-10 -232 110 -423 266 -423 136 0 243 120 272 307 6 39 8 98 5
131 l-7 59 49 17 c26 9 50 16 52 16 5 0 -5 -102 -14 -141 -5 -24 -2 -28 25
-34 43 -9 54 1 46 44 -18 100 -17 142 2 156 16 12 16 15 3 28 -15 15 -402 157
-424 157 -6 -1 -72 -23 -146 -51z m95 -290 c16 -17 17 -24 7 -51 -15 -40 -9
-45 31 -29 190 77 210 77 215 -2 8 -117 -110 -267 -209 -267 -81 0 -162 89
-195 214 -19 72 -18 90 12 125 22 27 33 31 73 31 36 0 53 -5 66 -21z"/>
<path d="M1655 1424 c-16 -13 -70 -44 -120 -68 -49 -23 -98 -52 -108 -64 -22
-24 -89 -218 -108 -309 -10 -50 -10 -64 0 -77 19 -23 973 -23 991 0 8 9 11 33
7 67 -6 57 -75 273 -100 311 -9 14 -61 46 -119 75 -57 28 -117 60 -134 71
l-30 20 -52 -53 -53 -53 21 -144 c11 -79 23 -154 26 -167 7 -26 -37 -103 -59
-103 -6 0 -23 17 -36 37 l-23 36 22 156 c24 166 23 160 21 177 -1 13 -98 114
-109 114 -4 -1 -20 -12 -37 -26z"/>
</g>
</svg>
